<?xml version="1.0" encoding="UTF-8"?>
<svg id="Layer_1" data-name="Layer 1" xmlns="http://www.w3.org/2000/svg" viewBox="0 0 697.45 528">
  <defs>
    <style>
      .cls-1 {
        stroke: #000;
        stroke-miterlimit: 10;
        stroke-width: 20px;
      }
    </style>
  </defs>
  <path class="cls-1" d="m262.76,10.33C178.47,14.63,96.96,50.09,29.6,111.62c-11.12,10.19-17.73,17.67-18.79,21.17-.99,3.31-1.12,133.39-.13,151.98,1.39,26.86,4.57,54.52,9.99,86.87,1.79,10.98,3.18,20.25,2.98,20.51-.13.26-1.19,5.09-2.32,10.72-5.95,29.11-10.59,65.44-9.79,76.42,1.06,14.16,10.19,27.66,22.96,33.88,10.19,5.03,8.34,4.9,77.41,4.7,68.35-.26,63.12.13,73.11-5.03,6.68-3.44,14.56-11.45,17.73-18,2.78-5.69,4.43-11.58,4.43-15.68,0-1.52.26-2.91.53-3.11.86-.53,18.66.86,30.57,2.32,25.54,3.18,51.54,9.2,73.11,17.07l8.54,3.11.79,5.29c.86,6.22,1.32,7.21,4.83,10.39,3.57,3.24,6.09,3.77,17.27,3.77,50.15,0,122.8-5.03,177.32-12.24,52.27-6.88,118.96-19.45,132.06-24.88,13.37-5.56,23.36-14.82,29.38-27.33,5.43-11.25,5.56-11.98,5.82-46.84.13-21.5,0-31.69-.53-33.61-.4-1.59-1.92-4.04-3.37-5.62-2.51-2.71-4.17-3.57-8.6-4.57-1.72-.4-1.72-.46-2.12-7.48-.6-12.64-3.84-24.35-10.06-36.92-6.62-13.3-17.14-25.87-29.44-35.13-6.95-5.23-22.16-12.9-30.1-15.15-12.84-3.64-14.69-3.84-52.6-4.3-38.31-.53-40.82-.73-57.89-4.9-39.37-9.73-84.42-33.28-123.99-64.84-12.24-9.79-17.67-14.75-25.08-23.09-21.57-24.28-35.79-51.61-44.46-85.48-4.43-17.47-6.48-32.62-7.01-52.27-.2-6.95-.6-13.5-.99-14.69-.86-2.78-5.76-7.21-8.93-8.07-2.38-.66-10.19-.79-19.45-.26Zm1.59,34.41c1.46,20.91,5.16,41.09,11.25,61.07,1.26,4.17,2.12,7.81,1.85,8.07-.66.6-39.24,12.57-39.57,12.24-.13-.13-.99-2.45-1.92-5.09-2.05-6.02-4.1-8.73-7.94-10.59-8.87-4.3-19.25,1.32-20.05,10.85-.26,3.24.46,5.89,7.15,26q9.2,27.59,14.03,30.04c5.69,2.91,11.45,2.18,16.08-2.12,4.7-4.37,5.56-9.59,2.98-17.53-.79-2.38-1.32-4.43-1.26-4.57.13-.07,9.59-3.11,21.04-6.68,17.4-5.43,20.91-6.35,21.37-5.56.33.53,2.58,4.57,4.96,8.93,5.43,9.86,10.26,17.33,16.28,25.34l4.63,6.22-1.92,1.79c-1.06,1.06-8.01,7.61-15.48,14.62s-14.82,13.96-16.34,15.42l-2.78,2.65-3.18-2.85c-4.04-3.57-7.67-5.29-11.45-5.29-9.92,0-16.74,10.59-12.64,19.58,1.39,3.11,30.96,33.15,34.27,34.93,7.01,3.57,15.28.93,18.92-6.22,1.59-3.04,1.85-4.23,1.59-7.01-.4-4.1-1.46-6.22-4.96-10.26l-2.71-3.04,17.47-16.47c9.66-9.06,17.8-16.54,18.19-16.67.33-.13,2.65,1.52,5.03,3.71,5.36,4.96,21.24,17.4,31.36,24.61,4.17,2.98,7.61,5.62,7.61,5.89,0,.2-3.71,10.32-8.2,22.5-7.54,19.98-8.4,21.97-9.59,21.7-.79-.2-3.71-.93-6.48-1.65-4.57-1.26-5.49-1.32-8.4-.53-4.3,1.12-7.54,3.64-9.26,7.21-2.78,5.82-1.12,13.17,3.9,17.07,3.24,2.45,46.84,17.14,50.95,17.14,12.7-.07,18.66-15.88,9.06-24.28-1.98-1.79-8.6-4.83-10.39-4.83-.33,0-.73-.26-.99-.6-.33-.53,13.17-37.58,13.96-38.37.2-.2,2.32.79,4.76,2.18,9.46,5.29,31.96,16.14,40.43,19.52,16.94,6.75,31.43,11.25,46.05,14.23,16.94,3.51,21.64,3.9,58.55,4.37,32.55.46,35.07.53,39.7,1.85,13.23,3.77,22.36,9.06,32.29,18.86,12.77,12.64,19.65,28.52,20.44,47.17l.4,8.67-2.91.73c-27.85,6.95-97.79,20.05-138.55,25.87-44,6.35-71.59,8.67-106.32,9.13-34.8.46-54.25-.73-79.26-4.76-13.7-2.25-21.5-4.04-46.65-10.65-22.69-5.95-35.6-8.8-48.3-10.59-7.08-1.06-17.14-1.19-90.71-1.39l-82.77-.26-1.06-6.42c-3.37-19.52-6.15-40.03-8.54-62.66-1.39-13.23-1.46-17.47-1.65-90.05l-.26-76.15,8.47-7.81c54.39-50.22,120.35-82.97,186.78-92.63,8.2-1.19,23.16-2.78,27.52-2.91l2.78-.07.4,6.42Zm394.6,370.85l-.2,20.71-2.12,4.5c-3.71,7.87-10.92,13.56-19.72,15.61-1.79.46-3.77.93-4.37,1.12-.93.26-1.12-.66-1.39-6.48-.46-8.01-1.39-10.59-5.03-13.89-4.5-4.1-10.32-4.76-15.88-1.92-3.11,1.59-4.37,2.98-6.02,6.68-1.19,2.51-1.39,4.37-1.39,12.37s-.13,9.4-1.12,9.73c-1.26.33-26,5.03-26.8,5.03-.2,0-.53-2.78-.66-6.22-.2-5.69-.4-6.48-2.18-9.06-5.62-8.01-17.53-8.01-23.16,0-1.92,2.71-1.98,3.11-2.18,11.31l-.26,8.54-1.72.33c-2.05.4-25.14,3.71-26,3.71-.33,0-.6-1.98-.6-4.37,0-6.02-1.12-9.4-4.3-12.5-2.78-2.78-6.42-4.3-10.39-4.3-3.31,0-8.67,2.91-10.65,5.82-2.25,3.31-2.58,4.63-3.04,12.37l-.4,6.62-13.56,1.32-13.56,1.39-.46-5.95c-.6-7.28-2.38-11.12-6.35-13.89-5.56-3.9-13.83-2.85-18.19,2.32-2.91,3.37-3.77,6.42-3.77,13.7v5.95l-3.11.4c-1.79.2-6.75.53-11.12.73s-9.33.53-11.05.73l-3.18.4v-7.87c0-6.15-.26-8.34-1.26-10.45-4.9-10.59-19.39-10.98-25.08-.66-.79,1.46-1.19,4.37-1.46,10.92l-.33,8.93-13.89.2-13.96.13-.73-2.78c-1.85-6.81-4.5-8.73-20.38-15.02-28.45-11.25-63.38-19.25-98.58-22.63-13.89-1.32-35.99-1.79-39.7-.86-3.97.99-8.47,5.29-9.53,9.26-.4,1.39-.73,6.75-.73,11.84,0,10.65-.73,13.1-4.96,16.74-3.57,3.18-4.7,3.44-14.62,3.44h-8.87v-8.47c0-9.33-.86-12.17-4.37-15.48-7.01-6.55-18.13-4.3-22.16,4.43-.99,2.12-1.26,4.3-1.26,11.05v8.47h-28.45v-7.67c0-9-.73-11.91-3.77-15.42-6.22-7.34-18.13-5.82-22.63,2.78-1.39,2.78-1.65,4.3-1.92,11.78l-.33,8.54h-8.2c-9.33,0-11.84-.79-15.28-5.03-3.31-4.04-3.64-6.42-2.51-18.46,1.39-14.23,4.63-36.59,7.21-49.95l2.12-10.92,73.77-.2c48.43-.13,77.41.07,84.36.53,18.26,1.26,27.85,3.04,55.64,10.45,50.09,13.43,76.02,16.87,126.31,16.94,35.27,0,63.05-2.12,108.84-8.27,41.48-5.56,103.02-16.81,145.89-26.66,6.95-1.59,13.1-2.91,13.76-2.98,1.12-.07,1.19,1.06.99,20.58Z"/>
</svg>