<?xml version="1.0" encoding="UTF-8"?>
<svg id="Layer_1" data-name="Layer 1" xmlns="http://www.w3.org/2000/svg" viewBox="0 0 24 24">
  <defs>
    <style>
      .cls-1 {
        fill: none;
        stroke: #000;
        stroke-linecap: round;
        stroke-linejoin: round;
        stroke-width: 2px;
      }
    </style>
  </defs>
  <circle class="cls-1" cx="12" cy="12" r="3"/>
  <path class="cls-1" d="m19.4,15c-.27.62-.14,1.34.33,1.82l.06.06c.78.78.78,2.05,0,2.83h0c-.78.78-2.05.78-2.83,0h0s-.06-.06-.06-.06c-.48-.47-1.2-.6-1.82-.33-.6.26-1,.85-1,1.51v.17c0,1.1-.9,2-2,2s-2-.9-2-2v-.09c-.02-.68-.44-1.28-1.08-1.51-.62-.27-1.34-.14-1.82.33l-.06.06c-.78.78-2.05.78-2.83,0,0,0,0,0,0,0-.78-.78-.78-2.05,0-2.83,0,0,0,0,0,0l.06-.06c.47-.48.6-1.2.33-1.82-.26-.6-.85-1-1.51-1h-.17c-1.1,0-2-.9-2-2s.9-2,2-2h.09c.68-.02,1.28-.44,1.51-1.08.27-.62.14-1.34-.33-1.82l-.06-.06c-.78-.78-.78-2.05,0-2.83,0,0,0,0,0,0,.78-.78,2.05-.78,2.83,0,0,0,0,0,0,0l.06.06c.48.47,1.2.6,1.82.33h.08c.6-.26,1-.85,1-1.51v-.17c0-1.1.9-2,2-2s2,.9,2,2v.09c0,.66.4,1.25,1,1.51.62.27,1.34.14,1.82-.33l.06-.06c.78-.78,2.05-.78,2.83,0,0,0,0,0,0,0,.78.78.78,2.05,0,2.83,0,0,0,0,0,0l-.06.06c-.47.48-.6,1.2-.33,1.82v.08c.26.6.85,1,1.51,1h.17c1.1,0,2,.9,2,2s-.9,2-2,2h-.09c-.66,0-1.25.4-1.51,1Z"/>
</svg>